<?xml version="1.0" encoding="UTF-8"?>
<!DOCTYPE svg PUBLIC "-//W3C//DTD SVG 1.1//EN" "http://www.w3.org/Graphics/SVG/1.1/DTD/svg11.dtd">
<!-- Creator: CorelDRAW X7 -->
<svg xmlns="http://www.w3.org/2000/svg" xml:space="preserve" width="11.811in" height="11.811in" version="1.1" style="shape-rendering:geometricPrecision; text-rendering:geometricPrecision; image-rendering:optimizeQuality; fill-rule:evenodd; clip-rule:evenodd"
viewBox="0 0 11811 11811"
 xmlns:xlink="http://www.w3.org/1999/xlink">
 <defs>
  <style type="text/css">
   <![CDATA[
    .fil0 {fill:#283C4F}
   ]]>
  </style>
 </defs>
 <g id="Layer_x0020_1">
  <metadata id="CorelCorpID_0Corel-Layer"/>
  <path class="fil0" d="M100 11711l332 0 0 -7297c0,-123 7,-243 22,-362 0,-10 0,-20 0,-31 0,-1990 1614,-3604 3604,-3604 1991,0 3605,1614 3605,3604 0,1991 -1614,3605 -3605,3605 -902,0 -1727,-332 -2359,-880l0 19 0 4946 5936 0 0 -3429 3150 0 0 3429 926 0 0 -11611 -8308 0c-1839,163 -3281,1708 -3281,3589 0,11 0,21 1,31 -15,117 -23,236 -23,357l0 7634zm4153 -8020l1249 -508c89,-36 89,-96 0,-132l-56 -23 -1193 485c-89,37 -235,37 -324,0l-1193 -485 -56 23c-89,36 -89,96 0,132l1249 508c89,37 235,37 324,0zm0 -222l1249 -509c89,-36 89,-95 0,-132l-1249 -508c-89,-36 -235,-36 -324,0l-1249 508c-89,37 -89,96 0,132l1249 509c89,36 235,36 324,0zm1374 -18l-1302 542c-86,36 -169,76 -169,169l0 830 0 0 0 778c0,93 83,205 169,169l1302 -541c85,-36 169,-76 169,-169l0 -830 0 0 0 -779c0,-93 -84,-204 -169,-169zm-968 1323l514 -210c58,-24 116,13 119,52l-513 211c-59,24 -116,-13 -120,-53zm-2068 -1323l1302 542c86,36 169,76 169,169l0 306 0 1 0 1301c0,93 -83,205 -169,169l-1302 -541c-85,-36 -169,-76 -169,-169l0 -306 0 -1 0 -1302c0,-93 84,-204 169,-169zm968 1323l-514 -210c-58,-24 -116,13 -119,52l513 211c59,24 116,-13 120,-53zm694 -860l1249 -509c89,-36 89,-95 0,-132l-56 -23 -1193 486c-89,36 -235,36 -324,0l-1193 -486 -56 23c-89,37 -89,96 0,132l1249 509c89,36 235,36 324,0zm25 2224l1441 -586c95,-39 102,-101 20,-143 -6,3 -13,6 -20,9l-1441 587c-103,42 -271,42 -374,0l-1440 -587c-8,-3 -15,-6 -21,-9 -82,42 -75,104 21,143l1440 586c103,42 271,42 374,0zm4932 -1668c869,0 1574,705 1574,1575 0,869 -705,1574 -1574,1574 -870,0 -1575,-705 -1575,-1574 0,-870 705,-1575 1575,-1575z"/>
 </g>
</svg>
